# xmcd
#
# Track frame offsets:
#	150
#	20120
#	40830
#	60587
#	78000
#	100572
#	120020
#	141240
#	163297
#	182830
#	200447
#	220337
#	239087
#	260832
#	279422
#	296625
#	312465
#
# Disc length: 4401 seconds
# Revision: 40
# Processed by: cddbd v1.5.2PL0 Copyright (c) Steve Scherf et al.
# Submitted via: dBpowerAMP V12.0
#
DISCID=fd112f11
DTITLE=Various Artist - #1's
DYEAR=1998
DGENRE=R&B and Pop
TTITLE0=Mariah Carey and Jermaine Dupri - Sweetheart
TTITLE1=Mariah Carey and Whitney Houston - When You Believe
TTITLE2=Mariah Carey and Brian McKnight - Whenever You Call
TTITLE3=Mariah Carey - My All
TTITLE4=Mariah Carey - Honey
TTITLE5=Mariah Carey - Always Be My Baby
TTITLE6=Mariah Carey and Boyz II Men - One Sweet Day
TTITLE7=Mariah Carey and  Ol' Dirty Bastard - Fantasy
TTITLE8=Mariah Carey - Hero
TTITLE9=Mariah Carey - Dreamlover
TTITLE10=Mariah Carey and Trey Lorenz - I'll Be There
TTITLE11=Mariah Carey - Emotions
TTITLE12=Mariah Carey - I Don't Wanna Cry
TTITLE13=Mariah Carey - Someday
TTITLE14=Mariah Carey - Love Takes Time
TTITLE15=Mariah Carey - Vision Of Love
TTITLE16=Mariah Carey - I Still Believe
EXTD=
EXTT0=
EXTT1=
EXTT2=
EXTT3=
EXTT4=
EXTT5=
EXTT6=
EXTT7=
EXTT8=
EXTT9=
EXTT10=
EXTT11=
EXTT12=
EXTT13=
EXTT14=
EXTT15=
EXTT16=
PLAYORDER=
